<?xml version="1.0" encoding="UTF-8"?>
<svg version="1.0" viewBox="0 0 358.85 789.36" xmlns="http://www.w3.org/2000/svg" xmlns:xlink="http://www.w3.org/1999/xlink">
<defs>
<linearGradient id="a">
<stop stop-color="#f8ce00" offset="0"/>
<stop stop-color="#b79700" offset="1"/>
</linearGradient>
<radialGradient id="f" cx="378.79" cy="819.9" r="115.39" gradientTransform="matrix(1.1693 0 0 .93776 -273.1 -147.55)" gradientUnits="userSpaceOnUse" xlink:href="#a"/>
<radialGradient id="e" cx="294.43" cy="598.63" r="91.234" gradientTransform="matrix(1.5041 0 0 .74199 -264.04 -146.71)" gradientUnits="userSpaceOnUse" xlink:href="#a"/>
<radialGradient id="d" cx="897.24" cy="153.65" r="15.849" gradientTransform="matrix(-.39086 0 0 3.6334 703.38 -167.47)" gradientUnits="userSpaceOnUse" xlink:href="#a"/>
<radialGradient id="c" cx="897.24" cy="153.65" r="15.849" gradientTransform="matrix(.39086 0 0 3.6334 -343 -162.47)" gradientUnits="userSpaceOnUse" xlink:href="#a"/>
<radialGradient id="b" cx="657.76" cy="319.37" r="1269.3" gradientTransform="matrix(.65803 0 0 1.5197 -252.14 -111.82)" gradientUnits="userSpaceOnUse" xlink:href="#a"/>
</defs>
<rect x="16.287" y="623.04" width="27.775" height="78.696" rx="8.5849" ry="8.5849" fill="#60585a" fill-rule="evenodd" stroke-width="1pt"/>
<rect x="311.29" y="613.04" width="27.775" height="78.696" rx="8.5849" ry="8.5849" fill="#60585a" fill-rule="evenodd" stroke-width="1pt"/>
<g transform="matrix(-1 0 0 -1 282.65 766.12)" fill="#4a00ad">
<path d="m76.616 699.19c-5.4727-0.321-11.137-0.388-16.567 0.34-3.5734 0.712-11.473 3.767-7.655 8.677 5.2454 5.042 14.531 4.269 21.161 3.703l0.5137 5.994c-9.1289 0.75-20.165 0.992-26.841-6.329-5.9809-9.521 3.3763-16.399 12.025-18.017 5.7819-0.733 11.564-0.349 17.362-0.688v6.32z"/>
<path transform="matrix(1 0 0 -1 0 1430)" d="m76.616 699.19c-5.4727-0.321-11.137-0.388-16.567 0.34-3.5734 0.712-11.473 3.767-7.655 8.677 5.2454 5.042 14.531 4.269 21.161 3.703l0.5137 5.994c-9.1289 0.75-20.165 0.992-26.841-6.329-5.9809-9.521 3.3763-16.399 12.025-18.017 5.7819-0.733 11.564-0.349 17.362-0.688v6.32z"/>
<path transform="matrix(1.3776 0 0 1.3776 -36.308 -268.33)" d="m97.472 715.31c-1.4986-0.143-3.0393-0.081-4.5417-0.089-1.2715-4e-3 -5.5397-0.655-6.3316 0.724-0.2793 0.983 0.196 2.108 1.022 2.657 2.002 1.029 4.7046 0.505 6.8526 0.402 2.6281-0.126 6.1922-0.416 6.9952 2.782 0.249 2.611-1.378 5.115-3.4074 6.63-2.6849 1.651-5.7413 1.346-8.7364 0.969-1.7834-0.237-3.5619-0.51-5.3498-0.711l0.3288-2.76c1.7937 0.214 3.576 0.511 5.3666 0.748 2.19 0.268 4.7033 0.675 6.7086-0.491 1.154-0.815 2.2671-2.318 2.2757-3.791 0.0105-1.097-3.415-0.664-4.039-0.633-2.8978 0.155-6.0482 0.623-8.678-0.876-2.1183-1.588-3.0545-4.623-1.4109-6.885 2.1458-2.038 5.6768-1.512 8.4036-1.521 1.5024-7e-3 3.0431 0.055 4.5417-0.088v2.933z"/>
<g transform="matrix(1.166 0 0 1.0624 -26.21 -45.238)">
<path d="m109.26 713.84c2.054 0.228 4.181 0.138 6.242 0.15 3.888 0.015 7.776-0.017 11.665-0.034 0.779-5e-3 1.559-0.011 2.338-0.036v3.227c-0.779-0.026-1.559-0.032-2.338-0.037-3.889-0.017-7.777-0.049-11.665-0.034-2.061 0.012-4.188-0.078-6.242 0.15v-3.386z"/>
<path transform="translate(1.3446 .33612)" d="m119.37 715.87c-0.159 1.242-0.079 2.551-0.087 3.798-0.011 2.488-0.012 4.976 6e-3 7.465 0.012 1.648 0.028 3.296 0.032 4.944 1e-3 0.986-2e-3 1.973-4e-3 2.959h-3.321c-2e-3 -0.986-5e-3 -1.973-3e-3 -2.959 3e-3 -1.648 0.019-3.296 0.031-4.944 0.018-2.489 0.018-4.977 7e-3 -7.465-9e-3 -1.247 0.072-2.556-0.088-3.798h3.427z"/>
</g>
<path d="m129.46 713.86c-0.219 1.706-0.114 3.502-0.134 5.217-0.046 4.31-0.051 8.621-8e-3 12.932 0.017 1.411 0.038 2.823 0.066 4.234h-3.275c0.027-1.411 0.049-2.823 0.066-4.234 0.043-4.311 0.037-8.622-8e-3 -12.932-0.021-1.715 0.085-3.511-0.134-5.217h3.427z"/>
<path d="m127.41 712.83c1.41 0.156 2.863 0.074 4.28 0.113 3.027 0.138 5.689 1.021 6.086 4.411 0.091 3.395-1.772 5.431-5.069 6.06-1.547 0.195-3.059 0.136-4.605-0.029l0.353-3.167c1.221 0.137 2.422 0.2 3.645 0.051 1.605-0.296 2.418-0.88 2.405-2.576-0.124-1.535-1.597-1.488-2.895-1.55-1.383-0.028-2.821-0.081-4.2 0.073v-3.386z"/>
<path d="m128.76 721.9c1.223 0.136 2.492 0.072 3.72 0.082 2.638 0.021 5.597-0.184 7.788 1.535 1.853 1.96 1.215 4.372 0.521 6.696-0.472 1.573-0.874 3.118-0.925 4.767-3e-3 0.322 0 0.641 8e-3 0.962l-3.305 0.084c-0.01-0.383-0.013-0.765-9e-3 -1.148 0.062-1.931 0.526-3.743 1.082-5.583 0.252-0.844 0.953-2.406 0.486-3.29-1.116-1.268-4.173-0.813-5.646-0.801-1.228 0.01-2.497-0.054-3.72 0.082v-3.386z"/>
<rect x="126.06" y="712.84" width="2.3531" height="3.0254" fill-rule="evenodd" stroke-width="1pt"/>
<path d="m165.39 724.77c0 6.958-5.196 12.606-11.598 12.606s-11.597-5.648-11.597-12.606c0-6.959 5.195-12.606 11.597-12.606s11.598 5.647 11.598 12.606zm-3.698-0.322c0 4.739-3.54 8.586-7.9 8.586-4.361 0-7.9-3.847-7.9-8.586 0-4.741 3.539-8.587 7.9-8.587 4.36 0 7.9 3.846 7.9 8.587z" fill-rule="evenodd" stroke-width="1pt"/>
</g>
<rect x="318.79" y="98.038" width="27.775" height="78.696" rx="8.5849" ry="8.5849" fill="#60585a" fill-rule="evenodd" stroke-width="1pt"/>
<rect x="8.6333" y="101.12" width="27.775" height="78.696" rx="8.5849" ry="8.5849" fill="#60585a" fill-rule="evenodd" stroke-width="1pt"/>
<path d="m178.73 782.98c-113.07 2.362-130.4-17.92-147.11-21.261-16.705-38.776-19.877-365.73-9.855-392.46 7.493-60.54-4.936-70.565-8.687-143.53-7.14-85.213 9.815-37.829-4.439-124.48 21.658-90.216-19.136-92.053 168.52-100.63 172.21 2.401 147.96 10.415 169.61 100.63-14.254 86.652 2.701 39.268-4.439 124.48-3.751 72.961-16.18 82.986-8.687 143.53 10.022 26.727 6.85 353.68-9.855 392.46-26.153 15.153-95.459 21.261-145.07 21.261z" fill="url(#b)" fill-rule="evenodd" stroke="#000" stroke-width="1pt"/>
<path d="m41.537 281.88s21.534 82.442 21.534 82.442 0 154.58-3.0758 157.15c-3.0771 2.5759-27.686 46.372-27.686 46.372s6.1517-280.81 9.2288-285.97z" fill="url(#c)" fill-rule="evenodd"/>
<path d="m318.84 276.88s-21.534 82.442-21.534 82.442 0 154.58 3.0758 157.15c3.0771 2.5759 27.686 46.372 27.686 46.372s-6.1517-280.81-9.2288-285.97z" fill="url(#d)" fill-rule="evenodd"/>
<path d="m37.198 44.521c-11.667 18.667-10.816 196.22 7.851 210.22 18.03-14.851 122.48-28.646 142.34-27.364 20.288-1.492 99.694 8.055 124.09 22.697 6.577 2.13 19.727-205.55 1.059-219.55-58.34-16.344-252.01-16.344-275.34 13.99z" fill="#f7ce00" fill-rule="evenodd" stroke="#000" stroke-opacity=".45912" stroke-width="1pt"/>
<path d="m41.764 257.39s65.53-26.897 138.64-27.585c65.833-0.64088 95.565 9.623 135.61 25.019-4.8534 48.756-9.7078 94.943-21.843 110.34-111.64-28.23-118.92-28.23-230.56 0-2.43-15.39-24.273-105.21-21.846-107.77z" fill="url(#e)" fill-rule="evenodd"/>
<path d="m45.51 260.2s63.783-24.762 134.95-25.395c64.078-0.59 93.017 8.859 132 23.033-4.724 44.885-9.449 87.405-21.261 101.58-108.67-25.986-115.75-25.985-224.42 1e-3 -2.362-14.174-23.623-96.856-21.261-99.218z" fill-opacity=".7044" fill-rule="evenodd" stroke="#000" stroke-width="1pt"/>
<path d="m75.697 531.43c-12.369 59.368-22.263 173.16-22.263 173.16 19.79 17.316 121.21 24.737 123.69 24.737 7.4212 0 108.84-7.4212 126.16-32.158 0-14.842-9.8956-121.21-19.79-168.21-86.579 12.368-202.84 7.4212-207.79 2.4734z" fill="url(#f)" fill-rule="evenodd"/>
<path d="m80.945 536.59c-11.812 56.695-21.261 165.36-21.261 165.36 18.899 16.536 115.75 23.623 118.12 23.623 7.087 0 103.94-7.087 120.48-30.71 0-14.174-9.45-115.75-18.899-160.64-82.681 11.811-193.71 7.087-198.44 2.362z" fill-opacity=".78616" fill-rule="evenodd" stroke="#000" stroke-width="1pt"/>
<path d="m321.9 279.09 28.348 2.362s14.174 14.174 4.725 21.261c-9.45 7.087-33.073-2.362-33.073-2.362v-21.261z" fill="#f7ce00" fill-rule="evenodd" stroke="#000" stroke-opacity=".55346" stroke-width="1.25"/>
<path d="m36.946 283.82-28.348 2.362s-14.174 14.174-4.725 21.261c9.45 7.087 33.073-2.362 33.073-2.362v-21.261z" fill="#f7ce00" fill-rule="evenodd" stroke="#000" stroke-opacity=".54717" stroke-width="1pt"/>
<path d="m52.582 17.025c-9.023 1.573-19.32 18.998-14.584 21.902 11.281-5.689 33.327-13.506 54.984-15.684 4.286-2.3 10.138-9.356 10.358-10.929-14.886-0.847-40.915 2.775-50.758 4.711z" fill="#2e87cf" fill-opacity=".56604" fill-rule="evenodd" stroke="#000" stroke-opacity=".25157" stroke-width="1.082pt"/>
<path d="m298.7 12.115c9.0231 1.5731 19.32 14.633 14.584 17.537-11.28-5.6886-33.327-7.5051-54.984-9.6837-4.2855-2.2999-10.134-10.992-10.36-12.565 14.888-0.84719 40.917 2.7754 50.76 4.7115z" fill="#2e87cf" fill-opacity=".56604" fill-rule="evenodd" stroke="#000" stroke-opacity=".25157" stroke-width="1.082pt"/>
<path d="m112.29 10.38c37.098-6.547 99.837-6.002 126.57-2.729" fill="none" stroke="#000" stroke-opacity=".37107" stroke-width="1pt"/>
<path d="m112.29 13.108c37.098-6.547 99.837-6.002 126.57-2.729" fill="none" stroke="#000" stroke-opacity=".37107" stroke-width="1pt"/>
<path d="m112.29 16.381c37.098-6.547 99.837-6.002 126.57-2.729" fill="none" stroke="#000" stroke-opacity=".37107" stroke-width="1pt"/>
<path d="m112.29 20.2c37.098-6.001 98.2-4.911 124.39-3.275" fill="none" stroke="#000" stroke-opacity=".37107" stroke-width="1pt"/>
<path d="m43.148 295.63s16.536 75.595 16.536 75.595 0 141.74-2.362 144.1c-2.363 2.362-21.261 42.521-21.261 42.521s4.724-257.49 7.087-262.22z" fill-opacity=".68554" fill-rule="evenodd" stroke="#000" stroke-width="1pt"/>
<path d="m36.35 310.53c-2.333 25.667-14.991 443.45 4.666 443.34 69.856 26.467 221.62 23.584 278.52-7.0003 17.53-0.0711 6.999-417.68 4.666-443.34" fill="none" stroke="#000" stroke-width="1pt"/>
<path d="m317.18 290.91s-16.536 75.595-16.536 75.595 0 141.74 2.362 144.1c2.363 2.362 21.261 42.521 21.261 42.521s-4.724-257.49-7.087-262.22z" fill-opacity=".74843" fill-rule="evenodd" stroke="#000" stroke-width="1pt"/>
</svg>
